<?xml version="1.0" encoding="UTF-8"?>
<svg width="113px" height="113px" viewBox="0 0 113 113" version="1.1" xmlns="http://www.w3.org/2000/svg" xmlns:xlink="http://www.w3.org/1999/xlink">
    <title>Group</title>
    <g id="Page-1" stroke="none" stroke-width="1" fill="none" fill-rule="evenodd">
        <g id="play-button-1" transform="translate(-69.000000, -69.000000)" fill="#FFFFFF">
            <g id="Group" transform="translate(73.000000, 73.000000)">
                <path d="M52.5,-3.5 C21.572054,-3.5 -3.5,21.572054 -3.5,52.5 C-3.5,83.427946 21.572054,108.5 52.5,108.5 C83.427946,108.5 108.5,83.427946 108.5,52.5 C108.5,21.572054 83.427946,-3.5 52.5,-3.5 Z M52.5,3.5 C79.5619527,3.5 101.5,25.4380473 101.5,52.5 C101.5,79.5619527 79.5619527,101.5 52.5,101.5 C25.4380473,101.5 3.5,79.5619527 3.5,52.5 C3.5,25.4380473 25.4380473,3.5 52.5,3.5 Z" id="Oval" fill-rule="nonzero"></path>
                <path d="M61.5935216,35.4608571 L81.3791504,69.4921386 C82.2119192,70.924501 81.7258526,72.7607527 80.2934902,73.5935216 C79.8355683,73.8597552 79.3153201,74 78.7856288,74 L39.2143712,74 C37.5575169,74 36.2143712,72.6568542 36.2143712,71 C36.2143712,70.4703087 36.354616,69.9500606 36.6208496,69.4921386 L56.4064784,35.4608571 C57.2392473,34.0284947 59.075499,33.5424281 60.5078614,34.3751969 C60.9577935,34.6367853 61.3319331,35.010925 61.5935216,35.4608571 Z" id="Triangle" transform="translate(59.000000, 52.500000) rotate(90.000000) translate(-59.000000, -52.500000) "></path>
            </g>
        </g>
    </g>
</svg>