<?xml version="1.0" encoding="UTF-8"?>
<svg width="171px" height="25px" viewBox="0 0 171 25" version="1.1" xmlns="http://www.w3.org/2000/svg" xmlns:xlink="http://www.w3.org/1999/xlink">
    <title>vector squiggles v2</title>
    <g id="final-posters" stroke="none" stroke-width="1" fill="none" fill-rule="evenodd">
        <g id="dark-vector-version" transform="translate(-130.000000, -880.000000)" fill="#CCCCCC">
            <g id="vector-squiggles-v2" transform="translate(130.000000, 880.000000)">
                <path d="M0.53,21.1361992 C2.7333573,17.2193175 5.54945099,15.6251341 8.1802988,15.6251341 C13.0162851,15.6251341 15.588353,20.7692699 19.0154019,20.7692699 C20.7912687,20.7692699 22.3195472,19.6667006 23.7284847,17.0340716 L26.5445783,19.1145254 C24.341221,22.9726272 21.5251273,24.5632481 18.8924983,24.5632481 C14.056512,24.5632481 11.4862254,19.4226748 8.05917649,19.4226748 C6.28330969,19.4226748 4.75324993,20.5234628 3.34609369,23.1560918 L0.53,21.1361992 Z" id="Fill-1"></path>
                <path d="M36.43,21.1361992 C38.6315761,17.2193175 41.449451,15.6251341 44.0802988,15.6251341 C48.9162851,15.6251341 51.4865718,20.7692699 54.9136206,20.7692699 C56.6912687,20.7692699 58.2195472,19.6667006 59.6284847,17.0340716 L62.4427971,19.1145254 C60.2394398,22.9726272 57.4251273,24.5632481 54.7924983,24.5632481 C49.956512,24.5632481 47.3862254,19.4226748 43.9591765,19.4226748 C42.1833097,19.4226748 40.6532499,20.5234628 39.2460937,23.1560918 L36.43,21.1361992 Z" id="Fill-3"></path>
                <path d="M108.15,21.2610651 C110.351576,17.3441833 113.16767,15.75 115.800299,15.75 C120.636285,15.75 123.206572,20.8941357 126.635402,20.8941357 C128.409487,20.8941357 129.939547,19.7915665 131.346703,17.1589375 L134.162797,19.2393912 C131.95944,23.097493 129.145127,24.6881139 126.512498,24.6881139 C121.676512,24.6881139 119.104444,19.5475406 115.679176,19.5475406 C113.90331,19.5475406 112.37325,20.6483287 110.964312,23.2809577 L108.15,21.2610651 Z" id="Fill-5"></path>
                <path d="M144.05,21.2610651 C146.251576,17.3441833 149.06767,15.75 151.700299,15.75 C156.536285,15.75 159.106572,20.8941357 162.535402,20.8941357 C164.309487,20.8941357 165.839547,19.7915665 167.246703,17.1589375 L170.062797,19.2393912 C167.85944,23.097493 165.045127,24.6881139 162.412498,24.6881139 C157.576512,24.6881139 155.004444,19.5475406 151.579176,19.5475406 C149.80331,19.5475406 148.27325,20.6483287 146.864312,23.2809577 L144.05,21.2610651 Z" id="Fill-5"></path>
                <polygon id="Stroke-11" points="85.2974376 5.52058597 75.0821958 24.6276303 71.3042485 24.6276303 83.8510948 0.95 83.9579674 0.95 86.7437805 0.95 99.2906268 24.6276303 95.5126794 24.6276303"></polygon>
            </g>
        </g>
    </g>
</svg>