<?xml version="1.0" encoding="UTF-8"?>
<svg width="90px" height="134px" viewBox="0 0 90 134" version="1.1" xmlns="http://www.w3.org/2000/svg" xmlns:xlink="http://www.w3.org/1999/xlink">
    <title>pause</title>
    <g id="Films" stroke="none" stroke-width="1" fill="none" fill-rule="evenodd">
        <g id="Artboard" transform="translate(-548.000000, -112.000000)" fill="#D3D3D3">
            <path d="M636.041667,112.458333 C636.870094,112.458333 637.541667,113.129906 637.541667,113.958333 L637.541667,243.958333 C637.541667,244.78676 636.870094,245.458333 636.041667,245.458333 L603.041667,245.458333 C602.21324,245.458333 601.541667,244.78676 601.541667,243.958333 L601.541667,113.958333 C601.541667,113.129906 602.21324,112.458333 603.041667,112.458333 L636.041667,112.458333 Z M582.5,112.458333 C583.328427,112.458333 584,113.129906 584,113.958333 L584,243.875 C584,244.703427 583.328427,245.375 582.5,245.375 L549.5,245.375 C548.671573,245.375 548,244.703427 548,243.875 L548,113.958333 C548,113.129906 548.671573,112.458333 549.5,112.458333 L582.5,112.458333 Z" id="pause"></path>
        </g>
    </g>
</svg>